<svg width="16" height="16" viewBox="0 0 16 16" fill="none" xmlns="http://www.w3.org/2000/svg">
<g clip-path="url(#clip0_2083_53225)">
<mask id="mask0_2083_53225" style="mask-type:luminance" maskUnits="userSpaceOnUse" x="0" y="0" width="16" height="16">
<path d="M16 0H0V16H16V0Z" fill="white"/>
</mask>
<g mask="url(#mask0_2083_53225)">
<path d="M5.33203 1.33203V3.33203" stroke="#141516" stroke-width="1.25" stroke-miterlimit="10" stroke-linecap="round" stroke-linejoin="round"/>
<path d="M10.668 1.33203V3.33203" stroke="#141516" stroke-width="1.25" stroke-miterlimit="10" stroke-linecap="round" stroke-linejoin="round"/>
<path d="M2.33203 6.05859H13.6654" stroke="#141516" stroke-width="1.25" stroke-miterlimit="10" stroke-linecap="round" stroke-linejoin="round"/>
<path d="M14 5.66536V11.332C14 13.332 13 14.6654 10.6667 14.6654H5.33333C3 14.6654 2 13.332 2 11.332V5.66536C2 3.66536 3 2.33203 5.33333 2.33203H10.6667C13 2.33203 14 3.66536 14 5.66536Z" stroke="#141516" stroke-width="1.25" stroke-miterlimit="10" stroke-linecap="round" stroke-linejoin="round"/>
<path d="M10.4648 9.13281H10.4708" stroke="#141516" stroke-width="1.33333" stroke-linecap="round" stroke-linejoin="round"/>
<path d="M10.4648 11.1328H10.4708" stroke="#141516" stroke-width="1.33333" stroke-linecap="round" stroke-linejoin="round"/>
<path d="M7.99609 9.13281H8.00209" stroke="#141516" stroke-width="1.33333" stroke-linecap="round" stroke-linejoin="round"/>
<path d="M7.99609 11.1328H8.00209" stroke="#141516" stroke-width="1.33333" stroke-linecap="round" stroke-linejoin="round"/>
<path d="M5.52734 9.13281H5.53333" stroke="#141516" stroke-width="1.33333" stroke-linecap="round" stroke-linejoin="round"/>
<path d="M5.52734 11.1328H5.53333" stroke="#141516" stroke-width="1.33333" stroke-linecap="round" stroke-linejoin="round"/>
</g>
</g>
<defs>
<clipPath id="clip0_2083_53225">
<rect width="16" height="16" fill="white"/>
</clipPath>
</defs>
</svg>
